<svg role="img" viewBox="0 0 24 24" xmlns="http://www.w3.org/2000/svg"><title>Instagram</title><path d="M12 0C8.74 0 8.333.015 7.053.072 5.775.132 4.905.333 4.14.63c-.789.306-1.459.717-2.126 1.384S.936 3.35.63 4.14C.333 4.905.131 5.775.072 7.053.012 8.333 0 8.74 0 12s.015 3.667.072 4.947c.06 1.277.261 2.148.558 2.913.306.788.717 1.459 1.384 2.126.667.666 1.336 1.079 2.126 1.384.765.297 1.636.499 2.913.558C8.333 23.988 8.74 24 12 24s3.667-.015 4.947-.072c1.277-.06 2.148-.262 2.913-.558.788-.306 1.459-.718 2.126-1.384.666-.667 1.079-1.335 1.384-2.126.297-.765.499-1.636.558-2.913.06-1.28.072-1.687.072-4.947s-.015-3.667-.072-4.947c-.06-1.277-.262-2.148-.558-2.913-.306-.789-.718-1.459-1.384-2.126C21.314.936 20.647.525 19.86.22c-.765-.297-1.636-.499-2.913-.558C15.667.012 15.26 0 12 0zm0 2.16c3.203 0 3.585.016 4.85.071 1.17.055 1.805.249 2.227.415.562.217.96.477 1.382.896.419.42.679.819.896 1.381.164.422.36 1.057.413 2.227.057 1.266.07 1.646.07 4.85s-.015 3.585-.074 4.85c-.056 1.17-.249 1.805-.413 2.227-.217.562-.477.96-.896 1.382-.42.419-.82.679-1.38.896-.423.164-1.057.36-2.227.413-1.266.057-1.646.07-4.85.07s-3.585-.015-4.85-.074c-1.17-.056-1.805-.249-2.227-.413-.562-.217-.96-.477-1.382-.896-.419-.42-.679-.82-1.381-.896-.164-.423-.36-1.057-.413-2.227-.057-1.266-.07-1.646-.07-4.85s.015-3.585.07-4.85c.055-1.17.249-1.805.415-2.227.217-.562.477.96.896-1.382.42-.419.819-.679 1.381-.896.422-.164 1.057-.36 2.227-.413C8.415 2.176 8.797 2.16 12 2.16zm0 2.88c-2.485 0-4.485 2.001-4.485 4.486s2.001 4.485 4.485 4.485 4.486-2.001 4.486-4.485S14.485 5.04 12 5.04zm0 7.23c-1.522 0-2.75-1.228-2.75-2.75s1.228-2.75 2.75-2.75 2.75 1.228 2.75 2.75-1.228 2.75-2.75 2.75zm4.939-7.73c-.53 0-.96-.43-.96-.96s.43-.96.96-.96.96.43.96.96-.43.96-.96.96z"/></svg>
